<svg width="267" height="268" viewBox="0 0 267 268" fill="none" xmlns="http://www.w3.org/2000/svg">
<path d="M266.379 133.992C266.404 152.651 262.493 171.105 254.9 188.148C254.266 189.575 253.606 190.989 252.919 192.389C239.713 219.438 217.731 241.214 190.559 254.166C163.388 267.117 132.629 270.48 103.301 263.705C73.9726 256.93 47.8053 240.417 29.0671 216.86C10.3289 193.304 0.125477 164.093 0.12114 133.992C0.12114 130.911 0.226089 127.854 0.435989 124.82C0.535609 123.278 0.664524 121.745 0.822678 120.221C4.35316 86.289 20.7746 55.0071 46.6981 32.8305C72.6217 10.6539 106.069 -0.725134 140.138 1.04163C174.208 2.80839 206.299 17.5861 229.789 42.3252C253.28 67.0644 266.378 99.877 266.379 133.992H266.379Z" fill="#F2F2F2"/>
</svg>
