<svg width="532" height="539" viewBox="0 0 532 539" fill="none" xmlns="http://www.w3.org/2000/svg">
<rect width="532" height="539" fill="white"/>
<g clip-path="url(#clip0)">
<path d="M223.983 248.227L415.808 247.885C416.151 247.885 416.479 247.748 416.722 247.506C416.964 247.263 417.101 246.935 417.101 246.592C417.101 246.249 416.964 245.92 416.722 245.678C416.479 245.435 416.151 245.299 415.808 245.299L223.983 245.641C223.64 245.641 223.311 245.777 223.069 246.02C222.826 246.262 222.69 246.591 222.69 246.934C222.69 247.277 222.826 247.606 223.069 247.848C223.311 248.091 223.64 248.227 223.983 248.227V248.227Z" fill="#3F3D56"/>
<path d="M221.117 266.327C231.114 266.327 239.217 258.223 239.217 248.227C239.217 238.231 231.114 230.127 221.117 230.127C211.121 230.127 203.018 238.231 203.018 248.227C203.018 258.223 211.121 266.327 221.117 266.327Z" fill="#3F3D56"/>
<path d="M407.209 248.135C382.671 248.135 358.683 240.859 338.281 227.226C317.878 213.593 301.976 194.217 292.585 171.546C283.195 148.876 280.738 123.93 285.525 99.8632C290.312 75.7965 302.129 53.6897 319.48 36.3386C336.831 18.9874 358.938 7.1711 383.005 2.38392C407.071 -2.40326 432.017 0.0536985 454.688 9.44408C477.358 18.8345 496.735 34.7365 510.367 55.1394C524 75.5422 531.277 99.5294 531.277 124.068C531.239 156.961 518.156 188.496 494.897 211.756C471.638 235.015 440.102 248.098 407.209 248.135V248.135ZM407.209 8.55639C384.363 8.55639 362.03 15.331 343.034 28.0235C324.039 40.7161 309.233 58.7565 300.49 79.8634C291.748 100.97 289.46 124.196 293.917 146.603C298.374 169.01 309.376 189.592 325.53 205.746C341.685 221.901 362.267 232.902 384.674 237.359C407.081 241.816 430.306 239.529 451.413 230.786C472.52 222.043 490.56 207.238 503.253 188.242C515.946 169.246 522.72 146.914 522.72 124.068C522.685 93.4428 510.504 64.0823 488.849 42.4272C467.194 20.7722 437.834 8.59115 407.209 8.55639V8.55639Z" fill="#3F3D56"/>
<path d="M460.742 173.779C456.201 173.782 451.761 172.439 447.984 169.918C444.206 167.398 441.261 163.814 439.521 159.619C437.78 155.425 437.322 150.809 438.205 146.354C439.088 141.9 441.272 137.807 444.481 134.594C447.69 131.381 451.78 129.192 456.233 128.303C460.686 127.414 465.303 127.865 469.5 129.6C473.696 131.335 477.284 134.276 479.81 138.05C482.335 141.824 483.685 146.262 483.688 150.803C483.689 156.892 481.273 162.732 476.971 167.04C472.668 171.348 466.831 173.772 460.742 173.779V173.779ZM407.209 173.779C401.125 173.772 395.293 171.353 390.992 167.051C386.691 162.75 384.271 156.918 384.264 150.835V97.3007C384.264 91.2153 386.681 85.3791 390.984 81.0761C395.287 76.7731 401.124 74.3557 407.209 74.3557C413.294 74.3557 419.13 76.7731 423.434 81.0761C427.737 85.3791 430.154 91.2153 430.154 97.3007V150.835C430.147 156.918 427.727 162.75 423.426 167.051C419.124 171.353 413.292 173.772 407.209 173.779V173.779ZM353.69 173.779C347.603 173.772 341.767 171.351 337.462 167.046C333.158 162.742 330.737 156.906 330.73 150.818V129.429C330.73 123.34 333.149 117.5 337.455 113.194C341.761 108.888 347.601 106.469 353.691 106.469C359.78 106.469 365.62 108.888 369.926 113.194C374.232 117.5 376.652 123.34 376.652 129.429V150.818C376.645 156.906 374.223 162.742 369.919 167.046C365.614 171.351 359.778 173.772 353.69 173.779Z" fill="#6C63FF"/>
<path d="M33.4315 427.93V430.011C33.4345 433.459 34.8056 436.765 37.2438 439.203C39.682 441.641 42.9881 443.013 46.4363 443.016H156.718C160.166 443.014 163.474 441.644 165.912 439.205C168.351 436.767 169.721 433.459 169.723 430.011V427.93C169.729 424.887 168.66 421.939 166.705 419.607C166.054 418.832 165.318 418.134 164.51 417.526H107.309C106.62 417.526 105.958 417.252 105.47 416.764C104.983 416.276 104.709 415.615 104.708 414.925H46.4364C42.9887 414.93 39.6836 416.301 37.2458 418.739C34.8079 421.177 33.4362 424.482 33.4315 427.93Z" fill="#3F3D56"/>
<path d="M94.2993 538.215H107.824L107.824 442.499H94.2993L94.2993 538.215Z" fill="#3F3D56"/>
<path d="M55.8048 537.74C55.8048 539.201 76.3 538.305 101.582 538.305C126.864 538.305 147.359 539.201 147.359 537.74C147.359 536.278 126.864 524.69 101.582 524.69C76.3 524.69 55.8048 536.278 55.8048 537.74Z" fill="#3F3D56"/>
<path d="M54.6553 425.735L100.807 433.101L154.429 441.663L173.021 444.628C174.806 444.91 176.629 444.472 178.092 443.411C179.555 442.35 180.537 440.753 180.824 438.969L181.666 433.704L182.447 428.804L183.091 424.767C183.237 423.864 183.198 422.942 182.976 422.055C182.755 421.168 182.355 420.335 181.801 419.607C181.147 418.711 180.278 417.996 179.273 417.526H107.309C106.62 417.526 105.958 417.252 105.47 416.764C104.983 416.276 104.709 415.615 104.708 414.925V412.875C104.709 412.186 104.983 411.524 105.47 411.037C105.958 410.549 106.62 410.275 107.309 410.274H135.587L122.551 408.194L82.4751 401.795L59.077 398.06C57.2879 397.777 55.4594 398.215 53.9927 399.278C52.5259 400.341 51.5407 401.942 51.2533 403.73L48.9851 417.921C48.7082 419.708 49.1488 421.532 50.2109 422.996C51.273 424.459 52.8705 425.444 54.6553 425.735Z" fill="#6C63FF"/>
<path d="M154.429 423.758V503.046C154.431 504.853 155.15 506.584 156.427 507.862C157.705 509.139 159.437 509.858 161.243 509.861H175.632C177.438 509.858 179.17 509.139 180.448 507.862C181.725 506.585 182.444 504.853 182.447 503.046V423.758C182.449 422.254 181.947 420.792 181.021 419.607C180.336 418.696 179.425 417.979 178.379 417.526H158.486C157.445 417.982 156.538 418.698 155.854 419.607C154.93 420.793 154.428 422.254 154.429 423.758V423.758Z" fill="#6C63FF"/>
<path d="M111.065 289.558C111.138 290.265 111.321 290.956 111.606 291.608C112.039 292.602 112.707 293.476 113.552 294.157L113.583 294.177L154.637 327.48L155.24 327.959L163.74 334.857L166.31 336.937H210.766L208.206 334.857L173.072 306.35L149.529 287.248L131.207 272.391C130.135 271.518 128.82 270.995 127.441 270.893C127.436 270.887 127.428 270.884 127.42 270.883C127.011 270.853 126.6 270.86 126.192 270.904C125.582 270.965 124.983 271.112 124.413 271.341C124.024 271.482 123.653 271.67 123.31 271.902C122.664 272.297 122.09 272.8 121.615 273.39L112.688 284.387L112.553 284.564C111.987 285.257 111.564 286.055 111.309 286.912C111.053 287.769 110.971 288.668 111.065 289.558V289.558Z" fill="#6C63FF"/>
<path d="M113.583 294.177C114.357 296.112 115.482 297.886 116.902 299.41L144.233 328.77C144.894 329.377 145.667 329.847 146.51 330.154C147.353 330.461 148.248 330.599 149.144 330.559C150.04 330.52 150.919 330.304 151.731 329.923C152.543 329.543 153.273 329.006 153.877 328.344L154.637 327.48L154.97 327.106L166.778 313.861L171.855 308.16C172.193 307.809 172.486 307.417 172.729 306.995C172.854 306.787 172.968 306.568 173.072 306.35C173.498 305.378 173.694 304.32 173.644 303.26C173.61 302.358 173.394 301.472 173.01 300.655C172.626 299.838 172.081 299.107 171.408 298.505L139.717 274.285C136.221 271.604 131.818 270.387 127.441 270.893C127.436 270.887 127.428 270.884 127.42 270.883C126.448 271.005 125.488 271.207 124.548 271.486C124.132 271.601 123.727 271.746 123.31 271.903C120.624 272.913 118.242 274.597 116.392 276.792C114.38 279.157 113.054 282.027 112.559 285.092C112.064 288.157 112.418 291.3 113.583 294.177V294.177Z" fill="#2F2E41"/>
<path d="M100.606 246.714C129.405 246.714 152.752 223.367 152.752 194.567C152.752 165.768 129.405 142.421 100.606 142.421C71.8058 142.421 48.459 165.768 48.459 194.567C48.459 223.367 71.8058 246.714 100.606 246.714Z" fill="#6C63FF"/>
<path d="M86.72 418.546L106.061 421.625L106.498 421.698L135.899 426.39L154.429 429.355L181.666 433.704L182.447 433.829L186.493 434.474L205.085 437.439C206.87 437.721 208.694 437.283 210.157 436.222C211.619 435.161 212.602 433.563 212.888 431.779L214.511 421.625L215.156 417.588C215.156 417.568 215.167 417.547 215.167 417.526H107.309C106.62 417.526 105.958 417.252 105.47 416.764C104.983 416.276 104.709 415.615 104.708 414.925V412.875C104.709 412.186 104.983 411.524 105.47 411.037C105.958 410.549 106.62 410.275 107.309 410.274H141.392V398.903L139.312 398.57L129.033 396.926L91.1315 390.882C89.3451 390.598 87.519 391.034 86.054 392.095C84.5891 393.156 83.6051 394.755 83.3179 396.541L82.4752 401.795L81.0497 410.743C80.7705 412.529 81.2104 414.353 82.2732 415.815C83.336 417.278 84.9349 418.26 86.72 418.546V418.546Z" fill="#6C63FF"/>
<path d="M29.6336 372.477C29.6336 414.987 33.9516 440.415 100.537 433.132C100.63 433.121 100.713 433.111 100.807 433.101C112.683 431.928 124.428 429.682 135.899 426.39C141.861 424.649 147.654 422.379 153.212 419.607C154.522 418.941 155.781 418.244 157.02 417.526H107.309C106.62 417.526 105.958 417.252 105.47 416.764C104.983 416.276 104.709 415.615 104.708 414.925V412.875C104.709 412.186 104.983 411.524 105.47 411.037C105.958 410.549 106.62 410.275 107.309 410.274H141.392V344.563C141.395 342.542 142.2 340.604 143.629 339.174C145.059 337.745 146.997 336.94 149.019 336.937H176.745C176.505 336.251 176.267 335.554 176.007 334.857C173.405 327.659 170.322 320.645 166.778 313.862C161.923 304.442 156.145 295.527 149.529 287.248C144.921 281.479 139.749 276.185 134.089 271.445C123.654 262.83 112.293 257.503 100.765 257.503C58.2551 257.503 29.6336 329.967 29.6336 372.477Z" fill="#2F2E41"/>
<path d="M99.51 213.895L99.4557 211.946C103.081 211.845 106.277 211.618 108.679 209.863C109.36 209.337 109.919 208.671 110.32 207.91C110.72 207.148 110.952 206.31 110.999 205.451C111.041 204.926 110.962 204.399 110.767 203.909C110.572 203.42 110.267 202.983 109.876 202.631C108.282 201.284 105.716 201.72 103.847 202.577L102.234 203.317L105.326 180.721L107.257 180.985L104.627 200.206C107.167 199.459 109.521 199.781 111.134 201.142C111.753 201.683 112.239 202.359 112.553 203.118C112.867 203.878 113.002 204.699 112.946 205.519C112.889 206.673 112.581 207.801 112.042 208.823C111.504 209.845 110.748 210.737 109.828 211.437C106.742 213.692 102.732 213.804 99.51 213.895Z" fill="#2F2E41"/>
<path d="M127.3 182.643H116.805V184.592H127.3V182.643Z" fill="#2F2E41"/>
<path d="M94.172 182.643H83.6767V184.592H94.172V182.643Z" fill="#2F2E41"/>
<path d="M58.9883 180.24C63.0439 174.135 70.18 171.547 77.217 170.917C85.1376 170.209 92.791 171.736 100.524 173.22C109.035 174.853 118.043 176.381 126.618 174.316C130.412 173.439 133.957 171.712 136.986 169.265C140.015 166.818 142.449 163.715 144.104 160.19C147.244 153.314 147.921 145.566 146.02 138.25C144.011 130.468 139.022 123.622 132.976 118.45C120.634 107.895 103.932 103.151 87.8678 103.598C71.8645 104.011 56.397 109.45 43.6569 119.143C30.8956 129.187 21.9156 143.26 18.1826 159.064C14.279 174.739 15.5506 191.256 21.8075 206.149C25.3228 214.304 30.4068 221.655 34.3299 229.605C37.9825 237.006 40.7955 245.611 38.5228 253.867C36.5286 261.111 30.6737 267.547 23.3233 269.513C19.9792 270.391 16.4405 270.159 13.2396 268.852C10.0386 267.545 7.34857 265.235 5.57395 262.267C1.89955 256.473 1.81164 248.884 7.32853 244.206C8.71951 243.007 10.3398 242.104 12.091 241.551C13.8421 240.997 15.6874 240.806 17.5147 240.989C19.3421 241.171 21.1133 241.723 22.7206 242.611C24.3278 243.5 25.7377 244.705 26.8643 246.156C29.1025 249.063 30.1043 252.735 29.6526 256.376C29.3808 258.216 32.1969 259.01 32.4712 257.153C33.1296 253.302 32.3995 249.343 30.4111 245.981C28.4228 242.619 25.3053 240.071 21.614 238.793C17.9228 237.515 13.8976 237.588 10.2556 239.001C6.61361 240.413 3.59139 243.073 1.72739 246.506C-1.59961 252.761 0.195511 260.306 4.4188 265.653C6.59779 268.501 9.55118 270.661 12.9256 271.874C16.3001 273.088 19.9527 273.303 23.4464 272.495C31.134 270.72 37.4228 264.61 40.3803 257.43C43.6728 249.436 42.1643 240.516 38.9546 232.76C35.485 224.375 30.3327 216.855 26.2582 208.776C22.5689 201.474 20.2212 193.569 19.327 185.437C17.5373 169.108 21.2435 152.648 29.8591 138.661C38.6407 124.891 52.0445 114.704 67.6625 109.93C83.0625 105.096 100.047 105.244 115.126 111.185C129.979 117.037 144.321 129.791 144.148 146.92C144.075 154.237 141.359 161.699 135.754 166.579C129.056 172.411 119.73 172.91 111.311 172C102.838 171.084 94.6094 168.609 86.0997 167.978C78.6981 167.429 70.7129 168 64.1042 171.677C61.0265 173.393 58.4063 175.824 56.4643 178.764C55.4204 180.336 57.951 181.801 58.9883 180.24V180.24Z" fill="#2F2E41"/>
<path d="M67.2858 307.869C67.3688 308.058 67.4624 308.242 67.5662 308.42C67.6708 308.607 67.7855 308.787 67.9096 308.961L90.7149 341.786L92.4838 344.335L111.086 371.093L129.033 396.926L136.295 407.393C136.49 407.678 136.709 407.946 136.95 408.194C138.073 409.375 139.583 410.114 141.205 410.275H141.392V365.631L139.311 362.635L115.976 329.051L90.9131 292.981C89.8807 291.497 88.3022 290.483 86.5236 290.162C84.745 289.84 82.9113 290.236 81.4246 291.264L73.7359 296.601L69.6054 299.473C68.2995 300.381 67.3527 301.718 66.929 303.252C66.5054 304.785 66.6316 306.419 67.2858 307.869V307.869Z" fill="#6C63FF"/>
<path d="M63.7171 307.068L64.7468 309.138L64.7575 309.149L65.0384 309.7L81.7573 342.888C82.6997 344.432 84.215 345.539 85.9718 345.968C87.7286 346.397 89.5838 346.113 91.1315 345.177L92.2135 344.501L92.4837 344.335L114.041 330.809C114.81 330.344 115.48 329.73 116.011 329.004C116.542 328.278 116.924 327.454 117.135 326.579C117.345 325.705 117.381 324.798 117.239 323.909C117.097 323.021 116.781 322.17 116.309 321.404L92.6296 289.298C90.3085 286.152 86.975 283.9 83.1893 282.923C79.4037 281.945 75.3969 282.3 71.8426 283.929C71.0405 284.291 70.2681 284.716 69.5327 285.199C66.0524 287.498 63.5375 290.996 62.4654 295.027C61.3933 299.058 61.8388 303.343 63.7171 307.068V307.068Z" fill="#2F2E41"/>
<path d="M186.493 417.526V495.857C186.496 497.664 187.215 499.395 188.492 500.673C189.77 501.95 191.502 502.669 193.308 502.672H207.697C209.503 502.669 211.235 501.95 212.513 500.673C213.79 499.395 214.509 497.664 214.511 495.857V417.526H186.493Z" fill="#6C63FF"/>
<path d="M102.628 412.875V414.925C102.629 416.008 103.005 417.058 103.691 417.896C104.377 418.734 105.332 419.309 106.394 419.524C106.539 419.544 106.685 419.576 106.831 419.586C106.987 419.596 107.143 419.607 107.309 419.607H267.696C270.271 419.606 272.741 418.584 274.563 416.764C276.385 414.944 277.41 412.475 277.413 409.9V344.563C277.41 341.988 276.385 339.52 274.563 337.7C272.741 335.88 270.271 334.857 267.696 334.857H149.018C146.445 334.859 143.978 335.883 142.158 337.703C140.338 339.523 139.314 341.99 139.312 344.563V408.194H107.309C106.068 408.194 104.877 408.687 103.999 409.565C103.121 410.443 102.628 411.634 102.628 412.875Z" fill="white"/>
<path d="M102.628 412.875V414.925C102.629 416.008 103.005 417.058 103.691 417.896C104.377 418.734 105.332 419.309 106.394 419.524C106.539 419.544 106.685 419.576 106.831 419.586C106.987 419.596 107.143 419.607 107.309 419.607H267.696C270.271 419.606 272.741 418.584 274.563 416.764C276.385 414.944 277.41 412.475 277.413 409.9V344.563C277.41 341.988 276.385 339.52 274.563 337.7C272.741 335.88 270.271 334.857 267.696 334.857H149.018C146.445 334.859 143.978 335.883 142.158 337.703C140.338 339.523 139.314 341.99 139.312 344.563V408.194H107.309C106.068 408.194 104.877 408.687 103.999 409.565C103.121 410.443 102.628 411.634 102.628 412.875ZM104.708 414.925V412.875C104.709 412.186 104.983 411.524 105.47 411.037C105.958 410.549 106.62 410.275 107.309 410.274H141.392V344.563C141.395 342.542 142.2 340.604 143.629 339.174C145.059 337.745 146.997 336.94 149.019 336.937H267.696C269.719 336.938 271.66 337.742 273.091 339.171C274.523 340.601 275.329 342.54 275.332 344.563V409.9C275.329 411.923 274.523 413.862 273.091 415.292C271.66 416.722 269.719 417.525 267.696 417.526H107.309C106.62 417.526 105.958 417.252 105.471 416.764C104.983 416.276 104.709 415.615 104.708 414.925V414.925Z" fill="#3F3D56"/>
<path d="M208.361 385.233C212.78 385.233 216.362 381.651 216.362 377.233C216.362 372.814 212.78 369.232 208.361 369.232C203.943 369.232 200.361 372.814 200.361 377.233C200.361 381.651 203.943 385.233 208.361 385.233Z" fill="#6C63FF"/>
<path d="M141.424 409.297H139.343V418.66H141.424V409.297Z" fill="#3F3D56"/>
</g>
<defs>
<clipPath id="clip0">
<rect width="531.277" height="538.577" fill="white"/>
</clipPath>
</defs>
</svg>
